<?xml version="1.0" encoding="UTF-8"?>
<svg version="1.1" xmlns="http://www.w3.org/2000/svg" width="256" height="256">
<path d="M0 0 C0.69667786 -0.00671722 1.39335571 -0.01343445 2.11114502 -0.02035522 C4.40595717 -0.03929362 6.70047596 -0.04325786 8.99536133 -0.04541016 C10.60093808 -0.05184308 12.20651368 -0.05857181 13.81208801 -0.06558228 C17.17699904 -0.07754616 20.54180749 -0.08126423 23.90673828 -0.08007812 C28.19596198 -0.07987547 32.48451914 -0.10712577 36.77358532 -0.14162254 C40.09126234 -0.16398501 43.40878163 -0.16791276 46.72652626 -0.16685867 C48.30641275 -0.16920259 49.88630441 -0.17795717 51.46611595 -0.19352341 C62.12474543 -0.28867729 72.26048165 0.07645252 80.38989258 7.91552734 C81.57278366 9.01929214 81.57278366 9.01929214 82.77957153 10.14535522 C85.21927763 12.51199949 87.331247 15.03936736 89.45895386 17.68838501 C96.15144061 25.65978463 102.07639127 32.05742388 112.81289864 33.22493553 C118.44200465 33.46787535 124.01975806 33.33321802 129.64770508 33.12646484 C132.09140191 33.1051156 134.5351876 33.09238642 136.97897339 33.08779907 C143.36058398 33.05567627 149.73547763 32.91967544 156.1149292 32.75689697 C165.12783581 32.54573962 174.1430917 32.47516192 183.15792847 32.39321899 C187.94740498 32.34965254 192.73332811 32.26478134 197.52151489 32.14657593 C199.7069654 32.10753815 201.89242052 32.06875687 204.07788086 32.03027344 C205.05877182 31.99696426 206.03966278 31.96365509 207.05027771 31.92933655 C214.35175338 31.83319659 219.59621746 33.40425803 225.13208008 38.25537109 C225.6709082 38.90634766 226.20973633 39.55732422 226.76489258 40.22802734 C227.31918945 40.87642578 227.87348633 41.52482422 228.44458008 42.19287109 C231.51399484 46.64767036 232.1416974 50.47593822 232.15731812 55.83625793 C232.16184923 56.48008681 232.16638034 57.12391568 232.17104876 57.78725451 C232.18367136 59.93661255 232.18207381 62.0857165 232.18041992 64.23510742 C232.18640656 65.77949854 232.19321242 67.32388667 232.20077515 68.86827087 C232.21842953 73.05847699 232.22313031 77.24860139 232.22440672 81.4388411 C232.2258293 84.05862351 232.23010094 86.6783852 232.23540115 89.29816246 C232.25390021 98.44317313 232.262072 107.58812553 232.26049805 116.7331543 C232.25929697 125.24865151 232.28039289 133.76389512 232.31198537 142.27932817 C232.33816561 149.59755225 232.3488646 156.91569361 232.34758723 164.23396415 C232.34707807 168.60158594 232.3527356 172.96898237 232.37394333 177.33655739 C232.39335503 181.44641445 232.39343039 185.55583186 232.37891006 189.66570473 C232.37682442 191.17009628 232.38150832 192.67451556 232.39363098 194.17885971 C232.46260938 203.33509056 232.23019337 210.33757972 225.92504883 217.53271484 C225.27407227 218.07154297 224.6230957 218.61037109 223.95239258 219.16552734 C223.30399414 219.71982422 222.6555957 220.27412109 221.98754883 220.84521484 C216.74578695 224.45685711 212.07337759 224.58056022 205.91447449 224.55795288 C204.55671015 224.56474955 204.55671015 224.56474955 203.17151624 224.57168353 C200.1377298 224.58434604 197.10412245 224.58270595 194.0703125 224.58105469 C191.89538848 224.58703879 189.72046658 224.59384406 187.54554749 224.60140991 C181.63639262 224.61908941 175.72729566 224.62376613 169.8181169 224.62504148 C164.88523728 224.62694027 159.95237116 224.63429761 155.01949674 224.64138567 C143.38082942 224.65767474 131.74219304 224.66255416 120.10351562 224.66113281 C108.09802104 224.65993132 96.09273126 224.68103365 84.0872795 224.71262014 C73.77969936 224.73877303 63.47217797 224.74950051 53.16456491 224.74822199 C47.00844622 224.74771206 40.85248724 224.75341272 34.6964016 224.77457809 C28.90563648 224.79394359 23.11518371 224.79409625 17.32440758 224.77954483 C15.20079594 224.77745354 13.07716484 224.78217664 10.95358658 224.79426575 C8.0507783 224.80971862 5.14904694 224.80040946 2.2462616 224.78500366 C1.40918441 224.79529079 0.57210721 224.80557791 -0.29033595 224.81617677 C-7.04822801 224.73711344 -12.24477812 222.80143438 -17.35229492 218.32568359 C-18.16053711 217.34921875 -18.16053711 217.34921875 -18.98510742 216.35302734 C-19.5394043 215.70462891 -20.09370117 215.05623047 -20.66479492 214.38818359 C-23.96079056 209.60453588 -24.40202713 205.21819764 -24.37753296 199.529953 C-24.38206407 198.75545046 -24.38659518 197.98094791 -24.3912636 197.18297559 C-24.40390952 194.59140525 -24.40228712 192.00004502 -24.40063477 189.40844727 C-24.40661992 187.54878977 -24.41342543 185.68913477 -24.42098999 183.82948303 C-24.43865906 178.77980294 -24.44334577 173.73019064 -24.44462156 168.68048263 C-24.44604327 165.52467058 -24.45031324 162.36887577 -24.455616 159.21306801 C-24.47411964 148.20070934 -24.48228623 137.18839909 -24.48071289 126.17602539 C-24.47951157 115.91553585 -24.50061126 105.6552567 -24.53220022 95.39482039 C-24.55836445 86.58191858 -24.56908011 77.76908546 -24.56780207 68.95614511 C-24.56729246 63.69427712 -24.57297525 58.43259608 -24.59415817 53.17076683 C-24.61354281 48.22045919 -24.61366339 43.27051678 -24.59912491 38.32019615 C-24.59703596 36.50619472 -24.60174282 34.69217042 -24.61384583 32.87820816 C-24.62933278 30.39572962 -24.61996825 27.91450505 -24.60458374 25.43205261 C-24.61487087 24.71948577 -24.62515799 24.00691892 -24.63575685 23.27275914 C-24.54861312 16.8803242 -22.31334727 11.80476128 -18.14526367 7.04833984 C-17.49428711 6.50951172 -16.84331055 5.97068359 -16.17260742 5.41552734 C-15.52420898 4.86123047 -14.87581055 4.30693359 -14.20776367 3.73583984 C-9.56913552 0.53976458 -5.58005582 0.03388104 0 0 Z " fill="#F7B314" transform="translate(24.110107421875,15.70947265625)"/>
<path d="M0 0 C10.94873287 -0.4023765 22.76178728 0.73382156 32.50390625 6.1953125 C32.50390625 6.8553125 32.50390625 7.5153125 32.50390625 8.1953125 C33.16390625 8.4015625 33.82390625 8.6078125 34.50390625 8.8203125 C46.70614995 14.41300753 56.31670019 26.07658125 61.4375 38.26171875 C67.44181002 54.77906976 67.57566693 72.46169045 60.19702148 88.57495117 C52.69673643 103.97268083 41.86845703 113.1127383 26.52734375 120.22265625 C18.12686905 122.92513455 9.65458955 123.5585803 0.87890625 123.5703125 C-0.09304687 123.59480469 -1.065 123.61929688 -2.06640625 123.64453125 C-8.81434622 123.67174069 -13.57923234 122.37601987 -19.49609375 119.1953125 C-20.63175781 118.64230469 -21.76742187 118.08929688 -22.9375 117.51953125 C-32.15447807 112.68609719 -39.097533 107.37125124 -45.49609375 99.1953125 C-46.54796875 98.050625 -46.54796875 98.050625 -47.62109375 96.8828125 C-50.34542425 92.97793878 -52.49609375 88.03744232 -52.49609375 83.1953125 C-53.15609375 83.1953125 -53.81609375 83.1953125 -54.49609375 83.1953125 C-58.54036076 69.78664151 -59.97026463 54.38757115 -54.49609375 41.1953125 C-53.93241296 39.65407718 -53.36985049 38.11243222 -52.80859375 36.5703125 C-52.37546875 35.4565625 -51.94234375 34.3428125 -51.49609375 33.1953125 C-50.83609375 33.1953125 -50.17609375 33.1953125 -49.49609375 33.1953125 C-49.23054688 32.46054687 -48.965 31.72578125 -48.69140625 30.96875 C-43.86523898 19.7707802 -33.09416217 11.57314276 -22.49609375 6.1953125 C-21.83609375 6.1953125 -21.17609375 6.1953125 -20.49609375 6.1953125 C-20.49609375 5.5353125 -20.49609375 4.8753125 -20.49609375 4.1953125 C-13.6087691 1.6603944 -7.31221396 0.40850357 0 0 Z " fill="#E94335" transform="translate(58.49609375,19.8046875)"/>
<path d="M0 0 C3.31108786 1.27615551 5.87807253 2.49921361 8.625 4.75 C15.45817716 10.03018235 24.38236298 16.17601216 33.30041504 15.89659119 C42.19844666 15.7020178 47.18960678 18.3237098 53.77420807 24.27301884 C58.21319012 28.5448537 62.53291522 32.91650868 66.80556679 37.35312009 C69.4001383 40.03220408 72.0347065 42.67139615 74.66491699 45.31541443 C79.62670679 50.31537266 84.55136478 55.35029379 89.46365118 60.39884275 C95.06156257 66.14801509 100.7030673 71.85360721 106.34715176 77.5573951 C115.10371304 86.41007889 123.83834736 95.2842025 132.53320312 104.19750977 C133.82797829 105.51988396 133.82797829 105.51988396 135.14891052 106.86897278 C135.9251326 107.66680176 136.70135468 108.46463074 137.50109863 109.28663635 C138.1808802 109.98367959 138.86066177 110.68072283 139.56104279 111.39888859 C141 113 141 113 141 114 C122.62370645 114.09352754 104.24747486 114.16402039 85.87099457 114.20724869 C77.33806898 114.2278557 68.80529147 114.25594059 60.27246094 114.30175781 C52.83343546 114.34168272 45.39451724 114.36744634 37.95538759 114.37635398 C34.01801045 114.3815592 30.08094011 114.39375417 26.1436615 114.42292023 C22.43361615 114.45017896 18.72400241 114.45842411 15.01386642 114.45243073 C13.01147694 114.45404659 11.0091339 114.47551448 9.00686646 114.49768066 C0.7505381 114.4600306 -4.85729043 113.63028383 -11.2421875 108.03515625 C-11.78101563 107.38417969 -12.31984375 106.73320312 -12.875 106.0625 C-13.42929688 105.41410156 -13.98359375 104.76570313 -14.5546875 104.09765625 C-17.76196863 99.44276444 -18.34393312 95.00753306 -18.51269531 89.46606445 C-18.54190063 88.72371552 -18.57110596 87.98136658 -18.60119629 87.21652222 C-18.85380582 80.35406654 -18.99100923 73.48713567 -19.09688187 66.62099934 C-19.16808958 62.02239966 -19.27382414 57.43089455 -19.46777344 52.83569336 C-20.86077428 19.05423715 -20.86077428 19.05423715 -11.47137451 8.81254578 C-7.86422109 5.51301205 -4.15538292 2.57751969 0 0 Z " fill="#FDD551" transform="translate(18,126)"/>
<path d="M0 0 C14.20398744 -0.09359992 28.40792678 -0.16378939 42.61215973 -0.20724869 C49.20802011 -0.22810871 55.80367306 -0.25639817 62.39941406 -0.30175781 C68.76661718 -0.34527093 75.13362096 -0.36914904 81.5009613 -0.37950897 C83.92820879 -0.38689043 86.35544557 -0.40130467 88.78260803 -0.42292023 C92.18669064 -0.4520258 95.58995327 -0.45595286 98.99414062 -0.45410156 C99.99395966 -0.46848267 100.99377869 -0.48286377 102.02389526 -0.49768066 C109.34257519 -0.45471154 114.68665802 1.09649649 120.2421875 5.96484375 C120.78101563 6.61582031 121.31984375 7.26679687 121.875 7.9375 C122.42929688 8.58589844 122.98359375 9.23429687 123.5546875 9.90234375 C126.22981343 13.78489139 127.25076232 17.27623783 127.24050903 21.96711731 C127.24325836 22.94161835 127.24600769 23.91611938 127.24884033 24.92015076 C127.2380545 26.50618858 127.2380545 26.50618858 127.22705078 28.12426758 C127.22734283 29.24665833 127.22763489 30.36904907 127.22793579 31.52545166 C127.22654349 35.23189041 127.2109867 38.93812765 127.1953125 42.64453125 C127.19158202 45.21571238 127.18873521 47.78689494 127.18673706 50.358078 C127.17988343 56.43178799 127.16412368 62.50541492 127.14403808 68.57909364 C127.12166294 75.4956337 127.1106816 82.41217727 127.10064721 89.32874453 C127.07975695 103.5525351 127.04459106 117.77626498 127 132 C126.69958298 131.3780777 126.39916595 130.7561554 126.08964539 130.11538696 C122.41443592 122.98050594 115.33571295 117.20895072 109.6875 111.625 C108.91494873 110.85623535 108.14239746 110.0874707 107.34643555 109.29541016 C104.90005818 106.86114235 102.4504586 104.43015894 100 102 C96.76786312 98.79463822 93.53917465 95.58585927 90.3125 92.375 C89.21844849 91.293396 89.21844849 91.293396 88.10229492 90.18994141 C87.40467041 89.49562012 86.7070459 88.80129883 85.98828125 88.0859375 C85.38540283 87.4882959 84.78252441 86.8906543 84.16137695 86.27490234 C82.28754474 84.3026479 80.50793816 82.28913472 78.73069763 80.23069763 C75.09351785 76.05132731 71.25195195 72.12425622 67.32055664 68.22290039 C66.58801666 67.49182068 65.85547668 66.76074097 65.10073853 66.00750732 C63.52501071 64.43555836 61.9481297 62.86476466 60.37019539 61.29503059 C57.87626991 58.81394436 55.38554841 56.32968098 52.89561462 53.84458923 C47.62071894 48.58107145 42.34188278 43.32151664 37.0625 38.0625 C30.91956212 31.94313973 24.77823737 25.82217847 18.64108086 19.69701958 C16.18120608 17.24365041 13.71835272 14.79329775 11.25538635 12.34303284 C9.76133863 10.85261435 8.26742928 9.36205714 6.77368164 7.87133789 C6.08337357 7.18619614 5.39306549 6.50105438 4.68183899 5.79515076 C4.06089355 5.17427582 3.43994812 4.55340088 2.80018616 3.91371155 C2.2562021 3.3719481 1.71221804 2.83018465 1.15174961 2.27200413 C0 1 0 1 0 0 Z " fill="#C06E01" transform="translate(129,48)"/>
<path d="M0 0 C0.79921875 0.01804687 1.5984375 0.03609375 2.421875 0.0546875 C3.02515625 0.07789062 3.6284375 0.10109375 4.25 0.125 C4.05859375 2.48046875 4.05859375 2.48046875 3.25 5.125 C1.03515625 6.48828125 1.03515625 6.48828125 -1.6875 7.4375 C-3.03134766 7.92669922 -3.03134766 7.92669922 -4.40234375 8.42578125 C-6.75 9.125 -6.75 9.125 -8.75 9.125 C-9.08 10.115 -9.41 11.105 -9.75 12.125 C-12.3125 13.8125 -12.3125 13.8125 -14.75 15.125 C-14.09 16.445 -13.43 17.765 -12.75 19.125 C-12.09 19.125 -11.43 19.125 -10.75 19.125 C-9.76 19.125 -8.77 19.125 -7.75 19.125 C-7.46125 20.259375 -7.1725 21.39375 -6.875 22.5625 C-6.50375 23.738125 -6.1325 24.91375 -5.75 26.125 C-5.09 26.455 -4.43 26.785 -3.75 27.125 C-3.75 24.155 -3.75 21.185 -3.75 18.125 C-0.4375 17.8125 -0.4375 17.8125 3.25 18.125 C5.1875 20.625 5.1875 20.625 6.25 23.125 C6.58 21.805 6.91 20.485 7.25 19.125 C8.24 19.125 9.23 19.125 10.25 19.125 C10.25 22.755 10.25 26.385 10.25 30.125 C8.6 29.795 6.95 29.465 5.25 29.125 C4.755 28.135 4.755 28.135 4.25 27.125 C3.92 28.445 3.59 29.765 3.25 31.125 C1.93 31.125 0.61 31.125 -0.75 31.125 C2.88 34.755 6.51 38.385 10.25 42.125 C11.57 40.805 12.89 39.485 14.25 38.125 C14.91 38.125 15.57 38.125 16.25 38.125 C16.25 37.465 16.25 36.805 16.25 36.125 C21.69447577 32.59344815 26.95692338 32.41966245 33.25 33.125 C38.20592343 34.75986823 42.57579728 37.43022165 45.390625 41.9609375 C47.10112709 46.26829277 47.10147855 50.60657003 46.25 55.125 C44.29335684 58.24294259 41.9924843 60.68334944 39.25 63.125 C40.013125 63.8675 40.77625 64.61 41.5625 65.375 C47.21733361 71.16134136 47.21733361 71.16134136 47.375 75.8125 C47.70126525 80.17629768 49.74856181 81.94637657 52.875 84.875 C53.71289062 85.59171875 54.55078125 86.3084375 55.4140625 87.046875 C57.25 89.125 57.25 89.125 57.27734375 91.125 C55.95157126 93.70597154 54.28631717 95.3761265 52.1875 97.375 C51.08728516 98.43460938 51.08728516 98.43460938 49.96484375 99.515625 C49.39894531 100.04671875 48.83304687 100.5778125 48.25 101.125 C47.92 100.465 47.59 99.805 47.25 99.125 C47.745 97.64 47.745 97.64 48.25 96.125 C46.58454661 93.95858335 46.58454661 93.95858335 44.25 92.125 C41.4488063 92.26865096 39.47430607 93.0252666 36.921875 94.16015625 C30.77694191 96.37915987 23.03572873 95.99579062 17.04296875 93.3515625 C12.54252161 90.27282524 9.781009 85.84539997 8.7421875 80.5234375 C8.54427937 76.15626474 9.05259136 73.5268676 11 69.5625 C13.25 67.125 13.25 67.125 15.375 66.125 C15.99375 66.125 16.6125 66.125 17.25 66.125 C18.24 67.115 18.24 67.115 19.25 68.125 C18.94595322 69.79725729 18.60371498 71.46253959 18.25 73.125 C18.14965035 74.64380553 18.0900338 76.16563201 18.0625 77.6875 C18.04832031 78.43128906 18.03414062 79.17507812 18.01953125 79.94140625 C18.28144076 82.42288784 18.95983774 84.00083999 20.25 86.125 C23.69299257 88.67536487 27.09324549 88.48334091 31.25 88.125 C33.27295852 87.1722992 35.27738352 86.17798823 37.25 85.125 C32.89325555 80.74354668 28.53324452 76.36538025 24.17016602 71.99023438 C22.68618854 70.50122647 21.20310961 69.0113225 19.72094727 67.52050781 C17.59105947 65.37849812 15.45796701 63.23972579 13.32421875 61.1015625 C12.66161545 60.43379791 11.99901215 59.76603333 11.31632996 59.07803345 C10.38570488 58.14729507 10.38570488 58.14729507 9.4362793 57.19775391 C8.89222946 56.65148346 8.34817963 56.10521301 7.78764343 55.54238892 C6.09816004 53.91104719 6.09816004 53.91104719 3.25 52.125 C2.92 65.985 2.59 79.845 2.25 94.125 C-0.39 94.125 -3.03 94.125 -5.75 94.125 C-5.75 77.955 -5.75 61.785 -5.75 45.125 C-8.72 45.785 -11.69 46.445 -14.75 47.125 C-14.75 44.485 -14.75 41.845 -14.75 39.125 C-12.77 38.63 -12.77 38.63 -10.75 38.125 C-12.18334578 36.49633456 -13.62182979 34.87219006 -15.0625 33.25 C-15.86300781 32.34507813 -16.66351562 31.44015625 -17.48828125 30.5078125 C-19.70811057 27.99287689 -19.70811057 27.99287689 -22.75 26.125 C-22.75 25.465 -22.75 24.805 -22.75 24.125 C-24.98947583 26.28449455 -26.86552266 28.29443324 -28.625 30.875 C-30.75 33.125 -30.75 33.125 -34 33.4375 C-34.9075 33.334375 -35.815 33.23125 -36.75 33.125 C-36.75 25.67229269 -32.65059051 21.41763775 -27.75 16.125 C-15.70357834 4.125 -15.70357834 4.125 -8.75 4.125 C-8.75 3.465 -8.75 2.805 -8.75 2.125 C-5.68753253 0.34090198 -3.52920727 -0.10380021 0 0 Z " fill="#EE4336" transform="translate(46.75,25.875)"/>
<path d="M0 0 C2 0 2 0 4.125 1.9375 C15 13.26970721 15 13.26970721 15 15 C13.35 15 11.7 15 10 15 C10 17.64 10 20.28 10 23 C12.97 22.34 15.94 21.68 19 21 C19 37.17 19 53.34 19 70 C21.64 70 24.28 70 27 70 C27 55.81 27 41.62 27 27 C33.75 31.5 33.75 31.5 36.43505859 34.20800781 C37.03522797 34.80832825 37.63539734 35.40864868 38.25375366 36.02716064 C38.87899933 36.66272888 39.504245 37.29829712 40.1484375 37.953125 C40.80582916 38.61334656 41.46322083 39.27356812 42.14053345 39.95379639 C44.22346262 42.04785262 46.29929958 44.14878065 48.375 46.25 C49.79250476 47.67754421 51.21046886 49.10463247 52.62890625 50.53125 C56.09127494 54.01557984 59.54730344 57.50608668 63 61 C58.36067272 64.67946647 54.93617913 65.40939166 49 65 C45.1727737 63.29901053 43.55129632 61.84361365 42 58 C41.50428961 53.30335405 41.81944039 48.57466848 43 44 C41.68 43.67 40.36 43.34 39 43 C35.29654953 47.39784743 34.28902912 50.69963893 34.55859375 56.46484375 C35.30750812 60.76613069 36.94087625 63.8886473 40 67 C45.55364062 70.73174494 52.55033031 70.76048344 59 70 C61.44783799 69.17351596 63.65464613 68.10088039 66 67 C68.1875 67 68.1875 67 70 68 C72.25 70.5625 72.25 70.5625 74 73 C59.55222916 82.78404346 44.25280455 85.29010631 27.1796875 82.33984375 C14.47218188 78.87006385 3.76368804 70.2691271 -3.25 59.1875 C-4.19475496 57.47351832 -5.11216644 55.74414641 -6 54 C-6.41507813 53.2265625 -6.83015625 52.453125 -7.2578125 51.65625 C-12.37263744 40.35355992 -11.72654091 25.23794156 -7.8125 13.625 C-5.81903682 8.46578136 -3.7115937 4.11284707 0 0 Z " fill="#444244" transform="translate(22,50)"/>
<path d="M0 0 C0.79269287 0.0112793 1.58538574 0.02255859 2.40209961 0.03417969 C17.88811496 0.39769369 31.36439795 6.68132767 42.140625 17.91015625 C50.24092089 28.03552611 53.42802063 38.60523018 53.3125 51.3125 C53.32410156 52.58867188 53.32410156 52.58867188 53.3359375 53.890625 C53.30951637 62.50391402 51.43981526 69.2308784 47.4375 76.8125 C47.11265625 77.44414063 46.7878125 78.07578125 46.453125 78.7265625 C45.66366205 80.2590494 44.86415466 81.7863553 44.0625 83.3125 C40.3113893 83.3125 39.67419542 82.46673903 37 79.9375 C33.10386637 75.95666781 32.34928787 73.0525448 31.69140625 67.65625 C30.59560477 63.57251777 27.47436964 61.55667094 24.0625 59.3125 C24.48402344 58.83039063 24.90554687 58.34828125 25.33984375 57.8515625 C25.88769531 57.21992187 26.43554688 56.58828125 27 55.9375 C27.54527344 55.31101563 28.09054688 54.68453125 28.65234375 54.0390625 C31.16709598 50.96005838 31.22376469 48.85180815 31.25 44.9375 C31.26417969 43.98101562 31.27835938 43.02453125 31.29296875 42.0390625 C30.90880816 37.49424742 29.51202924 35.73271212 26.1875 32.625 C20.60493015 28.49389831 14.81921604 28.89325211 8.0625 29.3125 C4.55420286 30.16965849 4.55420286 30.16965849 2.0625 31.3125 C2.0625 31.9725 2.0625 32.6325 2.0625 33.3125 C-0.9075 35.7875 -0.9075 35.7875 -3.9375 38.3125 C-7.8975 34.3525 -11.8575 30.3925 -15.9375 26.3125 C-15.2775 25.9825 -14.6175 25.6525 -13.9375 25.3125 C-12.9475 25.6425 -11.9575 25.9725 -10.9375 26.3125 C-10.9375 24.3325 -10.9375 22.3525 -10.9375 20.3125 C-10.525 20.951875 -10.1125 21.59125 -9.6875 22.25 C-7.93026136 24.72714576 -7.93026136 24.72714576 -3.9375 25.3125 C-3.9375 21.6825 -3.9375 18.0525 -3.9375 14.3125 C-4.9275 14.3125 -5.9175 14.3125 -6.9375 14.3125 C-6.9375 15.9625 -6.9375 17.6125 -6.9375 19.3125 C-8.31312854 18.02284824 -9.64516393 16.68560707 -10.9375 15.3125 C-10.9375 14.6525 -10.9375 13.9925 -10.9375 13.3125 C-11.8346875 13.5909375 -11.8346875 13.5909375 -12.75 13.875 C-14.9375 14.3125 -14.9375 14.3125 -17.9375 13.3125 C-17.9375 16.2825 -17.9375 19.2525 -17.9375 22.3125 C-19.2575 21.6525 -20.5775 20.9925 -21.9375 20.3125 C-21.9375 18.3325 -21.9375 16.3525 -21.9375 14.3125 C-22.9275 14.3125 -23.9175 14.3125 -24.9375 14.3125 C-25.2675 14.9725 -25.5975 15.6325 -25.9375 16.3125 C-27.2575 14.9925 -28.5775 13.6725 -29.9375 12.3125 C-28.9375 9.3125 -28.9375 9.3125 -26.49609375 7.8125 C-24.95115234 7.07 -24.95115234 7.07 -23.375 6.3125 C-22.36308594 5.8175 -21.35117187 5.3225 -20.30859375 4.8125 C-19.19613281 4.3175 -18.08367188 3.8225 -16.9375 3.3125 C-16.3194751 3.0338208 -15.7014502 2.7551416 -15.06469727 2.46801758 C-9.95691205 0.33392126 -5.50397126 -0.12904974 0 0 Z " fill="#444244" transform="translate(60.9375,30.6875)"/>
<path d="M0 0 C12.18294808 -0.58322624 25.06774274 -0.12868968 36 6 C36 6.66 36 7.32 36 8 C36.66 8.20625 37.32 8.4125 38 8.625 C50.2022437 14.21769503 59.81279394 25.88126875 64.93359375 38.06640625 C70.93790377 54.58375726 71.07176068 72.26637795 63.69311523 88.37963867 C56.19283018 103.77736833 45.36455078 112.9174258 30.0234375 120.02734375 C21.6229628 122.72982205 13.1506833 123.3632678 4.375 123.375 C3.40304688 123.39949219 2.43109375 123.42398438 1.4296875 123.44921875 C-5.31825247 123.47642819 -10.08313859 122.18070737 -16 119 C-17.70349609 118.17048828 -17.70349609 118.17048828 -19.44140625 117.32421875 C-26.04050277 113.8636162 -31.70356702 110.26443036 -37 105 C-35.515 104.505 -35.515 104.505 -34 104 C-32.1328125 105.109375 -32.1328125 105.109375 -30.125 106.75 C-17.44431257 116.99400631 -2.80211883 118.79881562 13 119 C13 118.34 13 117.68 13 117 C17.62 116.01 22.24 115.02 27 114 C27 113.34 27 112.68 27 112 C25.35 112 23.7 112 22 112 C22.53367188 111.73574219 23.06734375 111.47148437 23.6171875 111.19921875 C25.4014212 110.30125195 27.17594808 109.38395293 28.9453125 108.45703125 C29.99460937 107.91433594 31.04390625 107.37164062 32.125 106.8125 C33.17945312 106.26207031 34.23390625 105.71164063 35.3203125 105.14453125 C36.20460938 104.76683594 37.08890625 104.38914062 38 104 C38.66 104.33 39.32 104.66 40 105 C41.67987227 103.68334336 43.34466005 102.34736973 45 101 C45.53625 100.566875 46.0725 100.13375 46.625 99.6875 C48.23376649 97.71310476 49.10446148 95.64676506 50.04296875 93.29296875 C51.75899295 89.18151484 53.75931431 85.1952517 55.6953125 81.18359375 C58.27827858 74.88084717 58.15458323 68.70553217 58.125 62 C58.12886719 61.1234375 58.13273437 60.246875 58.13671875 59.34375 C58.12984855 54.78193451 57.93012655 50.48822972 57 46 C57.33 46 57.66 46 58 46 C58.67377075 38.06122291 53.27753696 30.99996103 48.66015625 24.91796875 C43.92736967 19.45246008 39.26382764 15.45370756 32.8359375 12.12109375 C32.23007813 11.75113281 31.62421875 11.38117187 31 11 C31 10.34 31 9.68 31 9 C30.27941406 8.87625 29.55882813 8.7525 28.81640625 8.625 C26.01410147 8.00312931 23.5983368 7.06590222 20.9375 6 C12.23339981 2.98578212 3.11766608 3.18019103 -6 3 C-6 2.67 -6 2.34 -6 2 C-4.02 2 -2.04 2 0 2 C0 1.34 0 0.68 0 0 Z " fill="#CE3933" transform="translate(55,20)"/>
<path d="M0 0 C1.11375 1.0209375 1.11375 1.0209375 2.25 2.0625 C4.75949064 4.28353676 4.75949064 4.28353676 7.3125 3.75 C7.869375 3.5025 8.42625 3.255 9 3 C9.28875 4.134375 9.5775 5.26875 9.875 6.4375 C10.24625 7.613125 10.6175 8.78875 11 10 C11.66 10.33 12.32 10.66 13 11 C13 8.03 13 5.06 13 2 C16.3125 1.6875 16.3125 1.6875 20 2 C21.9375 4.5 21.9375 4.5 23 7 C23.33 5.68 23.66 4.36 24 3 C24.99 3 25.98 3 27 3 C27 6.63 27 10.26 27 14 C24.525 13.505 24.525 13.505 22 13 C21.67 12.34 21.34 11.68 21 11 C20.67 12.32 20.34 13.64 20 15 C18.68 15 17.36 15 16 15 C19.63 18.63 23.26 22.26 27 26 C28.32 24.68 29.64 23.36 31 22 C31.66 22 32.32 22 33 22 C33 21.34 33 20.68 33 20 C38.44447577 16.46844815 43.70692338 16.29466245 50 17 C54.95592343 18.63486823 59.32579728 21.30522165 62.140625 25.8359375 C63.85112709 30.14329277 63.85147855 34.48157003 63 39 C61.04335684 42.11794259 58.7424843 44.55834944 56 47 C56.763125 47.7425 57.52625 48.485 58.3125 49.25 C63.96733361 55.03634136 63.96733361 55.03634136 64.125 59.6875 C64.59389631 65.76027902 69.67845966 69.22847388 74 73 C72.02 73.99 72.02 73.99 70 75 C46.24 51.24 22.48 27.48 -2 3 C-1.34 2.01 -0.68 1.02 0 0 Z " fill="#CB3D3C" transform="translate(30,42)"/>
<path d="M0 0 C4.68845512 2.2433171 8.42639245 5.26130474 10.359375 10.12890625 C11.21057818 14.9800111 11.47065672 19.35806081 8.79296875 23.625 C7.0650944 25.5832576 5.30903712 27.39311013 3.359375 29.12890625 C4.1225 29.87140625 4.885625 30.61390625 5.671875 31.37890625 C11.31035539 37.14851409 11.31035539 37.14851409 11.546875 41.87890625 C11.485 42.95140625 11.423125 44.02390625 11.359375 45.12890625 C4.57561141 39.57855422 -1.49585468 33.36448598 -7.640625 27.12890625 C-7.02445313 26.84273437 -6.40828125 26.5565625 -5.7734375 26.26171875 C-3.48288896 25.17856996 -3.48288896 25.17856996 -1.515625 23.00390625 C-0.896875 22.38515625 -0.278125 21.76640625 0.359375 21.12890625 C1.019375 21.12890625 1.679375 21.12890625 2.359375 21.12890625 C2.2723745 19.50289684 2.1641969 17.87800947 2.046875 16.25390625 C1.98886719 15.34898438 1.93085937 14.4440625 1.87109375 13.51171875 C1.5711711 10.76669024 1.5711711 10.76669024 -1.640625 9.12890625 C-1.640625 8.46890625 -1.640625 7.80890625 -1.640625 7.12890625 C-5.36758096 6.7819138 -8.92619846 6.59827389 -12.640625 7.12890625 C-15.33492049 9.79412268 -15.33492049 9.79412268 -16.640625 13.12890625 C-17.630625 14.61390625 -17.630625 14.61390625 -18.640625 16.12890625 C-21.203125 14.00390625 -21.203125 14.00390625 -23.640625 11.12890625 C-23.453125 7.81640625 -23.453125 7.81640625 -22.640625 5.12890625 C-21.650625 4.79890625 -20.660625 4.46890625 -19.640625 4.12890625 C-19.640625 3.46890625 -19.640625 2.80890625 -19.640625 2.12890625 C-13.70850502 -1.71895536 -6.68224352 -2.20434956 0 0 Z " fill="#EAE8E8" transform="translate(82.640625,59.87109375)"/>
<path d="M0 0 C0.99 0.495 0.99 0.495 2 1 C1.97679688 2.22074219 1.95359375 3.44148438 1.9296875 4.69921875 C1.80369135 14.37237608 2.08631803 23.48284948 4 33 C4.66 33 5.32 33 6 33 C6.67057887 34.7902061 7.3363469 36.58221489 8 38.375 C8.556875 39.87160156 8.556875 39.87160156 9.125 41.3984375 C10 44 10 44 10 46 C10.99 46.33 11.98 46.66 13 47 C13.2165625 47.9590625 13.2165625 47.9590625 13.4375 48.9375 C13.623125 49.618125 13.80875 50.29875 14 51 C15.31647119 51.69937532 16.65022151 52.36729133 18 53 C18.33 53.99 18.66 54.98 19 56 C16.02484693 59.00400358 13.04422593 62.00252155 10.0625 65 C9.21236328 65.85851562 8.36222656 66.71703125 7.48632812 67.6015625 C6.67744141 68.41367188 5.86855469 69.22578125 5.03515625 70.0625 C3.91185913 71.19365234 3.91185913 71.19365234 2.76586914 72.34765625 C1 74 1 74 0 74 C0 49.58 0 25.16 0 0 Z " fill="#F3B52D" transform="translate(0,70)"/>
<path d="M0 0 C3.69930462 -0.35810777 5.66473553 -0.18171075 8.96801758 1.60864258 C13.9485731 5.90989635 17.08850995 9.30920632 17.88427734 16.03271484 C18.21735877 21.92928581 17.96175376 27.79363144 17.6875 33.6875 C17.63224121 35.75703088 17.58206551 37.82670406 17.53710938 39.89648438 C17.41670368 44.93454182 17.22740136 49.96568363 17 55 C14.36 55 11.72 55 9 55 C9 38.83 9 22.66 9 6 C6.03 6.66 3.06 7.32 0 8 C0 5.36 0 2.72 0 0 Z " fill="#F6F6F6" transform="translate(32,65)"/>
<path d="M0 0 C-2.90092502 1.93395001 -3.89674737 2.30131941 -7.1875 2.625 C-8.445625 2.74875 -9.70375 2.8725 -11 3 C-9.63608996 7.09553544 -7.86708197 9.50018802 -4.81323242 12.52734375 C-3.51629707 13.82393921 -3.51629707 13.82393921 -2.19316101 15.14672852 C-1.25672256 16.06768311 -0.32028412 16.9886377 0.64453125 17.9375 C1.61684189 18.9042068 2.58848593 19.87158447 3.55949402 20.83959961 C6.11395594 23.38263431 8.67728665 25.91654177 11.24261475 28.4486084 C13.83963024 31.01503039 16.42827807 33.58986058 19.01757812 36.1640625 C23.63342688 40.75094828 28.25764617 45.32929535 32.8846283 49.904953 C35.26448993 52.26194868 37.63268514 54.63040936 40 57 C41.61047819 58.59612461 43.22294392 60.19022611 44.83552551 61.78422546 C47.34067096 64.26257929 49.8404815 66.7462858 52.34008789 69.23022461 C53.66222634 70.54221668 54.98614091 71.85242117 56.31176758 73.16088867 C58.22944426 75.05443769 60.14070408 76.95425812 62.05078125 78.85546875 C62.6475618 79.44192673 63.24434235 80.0283847 63.85920715 80.63261414 C65.27793655 82.05094989 66.64458583 83.52104029 68 85 C68 85.66 68 86.32 68 87 C69.485 87.495 69.485 87.495 71 88 C72.1875 90.5625 72.1875 90.5625 73 93 C69.8151764 91.59624242 67.70761438 89.94178433 65.27668762 87.46336365 C64.552164 86.73002808 63.82764038 85.9966925 63.0811615 85.24113464 C62.29616776 84.43638199 61.51117401 83.63162933 60.70239258 82.80249023 C59.86770447 81.95524384 59.03301636 81.10799744 58.17303467 80.2350769 C56.3600501 78.39438571 54.54916347 76.55162635 52.74012184 74.70705986 C49.8764038 71.78756327 47.00176756 68.87898595 44.12467957 65.97267151 C43.13861414 64.97631874 42.15256173 63.97995309 41.16652203 62.98357487 C40.42591048 62.23520664 40.42591048 62.23520664 39.67033708 61.47171986 C32.97680773 54.70617701 26.29281255 47.93143207 19.62963867 41.13598633 C15.13137821 36.54860741 10.61891675 31.97571909 6.08998221 27.41861492 C3.69601999 25.00853869 1.30999359 22.59163465 -1.05864525 20.15664482 C-3.70604295 17.44174979 -6.37733308 14.75269329 -9.05541992 12.06811523 C-10.21772881 10.85794991 -10.21772881 10.85794991 -11.40351868 9.62333679 C-16.53309453 4.55006227 -19.73681906 2.99215399 -27 3 C-27 2.67 -27 2.34 -27 2 C-25.91460937 1.93941406 -24.82921875 1.87882813 -23.7109375 1.81640625 C-22.26561514 1.73193936 -20.82030318 1.64729449 -19.375 1.5625 C-18.66214844 1.52318359 -17.94929688 1.48386719 -17.21484375 1.44335938 C-11.43651729 1.09878027 -5.78588049 -0.17017296 0 0 Z " fill="#CD9714" transform="translate(82,141)"/>
<path d="M0 0 C2 0 2 0 4.1875 2 C7.59598309 5.5411486 10.79385088 9.276432 14 13 C12.19140625 13.6796875 12.19140625 13.6796875 10 14 C8.40234375 12.8203125 8.40234375 12.8203125 6.9375 11.125 C4.83429438 8.72611826 4.15110537 8.05036846 1 7 C0.81824219 7.556875 0.63648438 8.11375 0.44921875 8.6875 C0.19785156 9.450625 -0.05351562 10.21375 -0.3125 11 C-0.58320313 11.83402344 -0.85390625 12.66804688 -1.1328125 13.52734375 C-2 16 -2 16 -3.6875 19.5625 C-7.43770335 29.52335756 -5.49289255 43.28805485 -2 53 C0.38445768 57.85910761 2.85072585 62.86049528 6.71875 66.7109375 C8 68 8 68 8 70 C8.55171875 70.268125 9.1034375 70.53625 9.671875 70.8125 C12.25088039 72.12796584 14.75082068 73.53849162 17.25 75 C18.14203125 75.515625 19.0340625 76.03125 19.953125 76.5625 C20.62859375 77.036875 21.3040625 77.51125 22 78 C22 78.66 22 79.32 22 80 C9.29575243 75.2386883 0.08802543 65.95990794 -6 54 C-6.41507813 53.2265625 -6.83015625 52.453125 -7.2578125 51.65625 C-12.37263744 40.35355992 -11.72654091 25.23794156 -7.8125 13.625 C-5.81903682 8.46578136 -3.7115937 4.11284707 0 0 Z " fill="#2E2323" transform="translate(22,50)"/>
<path d="M0 0 C4 0 4 0 5.640625 1.50390625 C6.17171875 2.18324219 6.7028125 2.86257812 7.25 3.5625 C10.34981057 7.35489297 13.67484805 10.40438526 17.49609375 13.45703125 C19 15 19 15 19 18 C19.58523437 18.27070312 20.17046875 18.54140625 20.7734375 18.8203125 C22.98379242 19.99141283 24.72285264 21.25775577 26.625 22.875 C27.51058594 23.61363281 27.51058594 23.61363281 28.4140625 24.3671875 C30 26 30 26 30.96484375 27.96875 C32.24022804 30.47139087 33.79900185 31.81703322 35.9375 33.625 C36.62714844 34.21539062 37.31679687 34.80578125 38.02734375 35.4140625 C40.11733437 37.14252273 40.11733437 37.14252273 43 39 C43.391875 39.721875 43.78375 40.44375 44.1875 41.1875 C46.36261023 44.56267104 48.96811895 46.67571991 52.0234375 49.2421875 C54 51 54 51 56.5 54.0625 C59.12305173 57.14458578 61.79489295 59.16972387 65.1328125 61.41015625 C67 63 67 63 68.4375 65.40234375 C70.23105597 68.38413055 72.24618992 70.23075361 74.875 72.5 C78.37648631 75.56506918 81.70931246 78.70931246 85 82 C86.10107323 82.8581506 87.20533767 83.71221988 88.3125 84.5625 C89.199375 85.366875 90.08625 86.17125 91 87 C91 88.32 91 89.64 91 91 C91.56203125 91.24878906 92.1240625 91.49757813 92.703125 91.75390625 C95.37711859 93.20459325 97.46419538 94.9318185 99.75 96.9375 C100.54921875 97.62714844 101.3484375 98.31679687 102.171875 99.02734375 C104 101 104 101 104 104 C104.56589844 104.25265625 105.13179688 104.5053125 105.71484375 104.765625 C112.00711476 108.16452695 117.47440165 113.26507107 120 120 C116.97125541 118.64368172 114.8748059 117.12353234 112.53588867 114.77880859 C111.54917427 113.79670914 111.54917427 113.79670914 110.54252625 112.79476929 C109.49087029 111.73233505 109.49087029 111.73233505 108.41796875 110.6484375 C107.68556473 109.91557526 106.95316071 109.18271301 106.19856262 108.42764282 C104.64880153 106.87486171 103.10147055 105.31965197 101.55639648 103.76220703 C99.21187332 101.39956172 96.85958252 99.04488265 94.50585938 96.69140625 C92.99692583 95.17755167 91.48844785 93.66324283 89.98046875 92.1484375 C89.28543747 91.4522934 88.59040619 90.75614929 87.87431335 90.03890991 C87.20704727 89.36526398 86.53978119 88.69161804 85.85229492 87.99755859 C85.27589767 87.41734955 84.69950043 86.8371405 84.1056366 86.23934937 C82.26066676 84.2772197 80.49881289 82.27432382 78.73919678 80.23622131 C75.0982223 76.05615773 71.2541014 72.12638925 67.32055664 68.22290039 C66.58801666 67.49182068 65.85547668 66.76074097 65.10073853 66.00750732 C63.52501071 64.43555836 61.9481297 62.86476466 60.37019539 61.29503059 C57.87626991 58.81394436 55.38554841 56.32968098 52.89561462 53.84458923 C47.62071894 48.58107145 42.34188278 43.32151664 37.0625 38.0625 C30.91956212 31.94313973 24.77823737 25.82217847 18.64108086 19.69701958 C16.18120608 17.24365041 13.71835272 14.79329775 11.25538635 12.34303284 C9.76133863 10.85261435 8.26742928 9.36205714 6.77368164 7.87133789 C6.08337357 7.18619614 5.39306549 6.50105438 4.68183899 5.79515076 C4.06089355 5.17427582 3.43994812 4.55340088 2.80018616 3.91371155 C2.2562021 3.3719481 1.71221804 2.83018465 1.15174961 2.27200413 C0 1 0 1 0 0 Z " fill="#9D5B01" transform="translate(129,48)"/>
<path d="M0 0 C0.79269287 0.0112793 1.58538574 0.02255859 2.40209961 0.03417969 C17.88505198 0.39762179 31.34646929 6.67819341 42.12890625 17.89453125 C45.8382775 22.53311873 48.9029944 27.77830939 51.0625 33.3125 C50.74609375 35.703125 50.74609375 35.703125 50.0625 37.3125 C49.73378906 36.56226563 49.40507813 35.81203125 49.06640625 35.0390625 C42.93285129 21.84111498 34.51183704 12.87286262 20.875 7.5 C6.52810147 3.20101799 -7.72774522 4.84775438 -20.9375 11.3125 C-21.83210938 11.87839844 -22.72671875 12.44429687 -23.6484375 13.02734375 C-24.40382813 13.45144531 -25.15921875 13.87554687 -25.9375 14.3125 C-28.25 13.5 -28.25 13.5 -29.9375 12.3125 C-28.9375 9.3125 -28.9375 9.3125 -26.49609375 7.8125 C-24.95115234 7.07 -24.95115234 7.07 -23.375 6.3125 C-22.36308594 5.8175 -21.35117187 5.3225 -20.30859375 4.8125 C-19.19613281 4.3175 -18.08367188 3.8225 -16.9375 3.3125 C-16.3194751 3.0338208 -15.7014502 2.7551416 -15.06469727 2.46801758 C-9.95691205 0.33392126 -5.50397126 -0.12904974 0 0 Z " fill="#2B2223" transform="translate(60.9375,30.6875)"/>
<path d="M0 0 C2.0625 0.4375 2.0625 0.4375 4 1 C5.125 4.75 5.125 4.75 4 7 C3.80241769 9.07564676 3.80241769 9.07564676 3.8125 11.375 C3.79123047 12.53128906 3.79123047 12.53128906 3.76953125 13.7109375 C4.02539648 16.252243 4.67364265 17.83045833 6 20 C9.43384607 22.54358968 12.85511944 22.2960629 17 22 C18.34090759 21.34870203 19.67592331 20.68486725 21 20 C23.0625 20.125 23.0625 20.125 25 21 C26.75 23.0625 26.75 23.0625 28 25 C20.80680277 29.34306248 14.99466704 29.96987728 6.73046875 28.6328125 C1.5082057 27.17497234 -1.19450617 24.12759074 -3.9296875 19.5390625 C-5.71693341 15.29924556 -5.92102998 11.49097263 -5 7 C-3.75140922 4.25864958 -2.14258609 2.14258609 0 0 Z " fill="#F0F0F0" transform="translate(61,92)"/>
<path d="M0 0 C4.18048184 0.86642111 5.58891152 2.04207407 8.26171875 5.46875 C8.74365904 8.86306063 8.61844887 12.06660167 8.26171875 15.46875 C7.60171875 15.46875 6.94171875 15.46875 6.26171875 15.46875 C6.07609375 16.108125 5.89046875 16.7475 5.69921875 17.40625 C4.26171875 19.46875 4.26171875 19.46875 1.19921875 20.78125 C-4.26689896 20.34743113 -6.31988463 17.8083164 -10.11328125 14.05859375 C-11.73828125 11.46875 -11.73828125 11.46875 -11.58203125 8.33984375 C-9.63589338 1.71756906 -6.75102344 -0.44634866 0 0 Z " fill="#4A484A" transform="translate(76.73828125,65.53125)"/>
<path d="M0 0 C0.79921875 0.01804687 1.5984375 0.03609375 2.421875 0.0546875 C3.02515625 0.07789062 3.6284375 0.10109375 4.25 0.125 C4.2109375 2.453125 4.2109375 2.453125 3.25 5.125 C0.73754544 6.28647535 -1.49603455 7.09937632 -4.125 7.875 C-16.27340248 11.97530516 -23.72219993 19.27449971 -30.77734375 29.71875 C-32.75 32.125 -32.75 32.125 -35.00390625 32.96875 C-35.58011719 33.0203125 -36.15632813 33.071875 -36.75 33.125 C-36.75 25.67229269 -32.65059051 21.41763775 -27.75 16.125 C-15.70357834 4.125 -15.70357834 4.125 -8.75 4.125 C-8.75 3.465 -8.75 2.805 -8.75 2.125 C-5.68753253 0.34090198 -3.52920727 -0.10380021 0 0 Z " fill="#FD8075" transform="translate(46.75,25.875)"/>
<path d="M0 0 C5.25174926 4.38442526 10.13222473 9.00842093 14.9375 13.875 C15.62134766 14.56335938 16.30519531 15.25171875 17.00976562 15.9609375 C18.67551464 17.63833511 20.3388622 19.31803791 22 21 C17.36067272 24.67946647 13.93617913 25.40939166 8 25 C4.1727737 23.29901053 2.55129632 21.84361365 1 18 C0.76953125 15.81640625 0.76953125 15.81640625 0.8125 13.5625 C0.82539062 12.77746094 0.83828125 11.99242188 0.8515625 11.18359375 C1 9 1 9 1.6875 6.125 C1.790625 5.42375 1.89375 4.7225 2 4 C0.66621425 2.1645201 0.66621425 2.1645201 -1 1 C-0.67 0.67 -0.34 0.34 0 0 Z " fill="#4E4647" transform="translate(63,90)"/>
<path d="M0 0 C2.60444348 -0.05394705 5.20776998 -0.09364469 7.8125 -0.125 C8.55048828 -0.14175781 9.28847656 -0.15851562 10.04882812 -0.17578125 C13.91246426 -0.21074628 15.70903668 -0.19397555 19 2 C18.814375 3.0725 18.62875 4.145 18.4375 5.25 C18.0695432 8.40391546 17.95534657 10.09818492 19 13 C18.01 12.67 17.02 12.34 16 12 C15.3125 9.9375 15.3125 9.9375 15 8 C14.01 8 13.02 8 12 8 C12 9.32 12 10.64 12 12 C8.0186217 13.3271261 4.14954773 13.06915913 0 13 C0 8.71 0 4.42 0 0 Z " fill="#7F7E80" transform="translate(70,44)"/>
<path d="M0 0 C-2.90092502 1.93395001 -3.89674737 2.30131941 -7.1875 2.625 C-8.445625 2.74875 -9.70375 2.8725 -11 3 C-9.57629834 7.62149787 -6.94839548 10.44667738 -3.5546875 13.73828125 C-3.02481232 14.26391159 -2.49493713 14.78954193 -1.94900513 15.33110046 C-0.26461389 16.9987766 1.42993261 18.65568349 3.125 20.3125 C4.27282316 21.44526708 5.41996641 22.57872355 6.56640625 23.71289062 C9.36979437 26.4833047 12.18233431 29.24411133 15 32 C14.67 32.99 14.34 33.98 14 35 C9.39349547 31.28443832 5.24895437 27.25716249 1.1640625 22.98046875 C0.08878934 21.86499558 -0.98673624 20.74976568 -2.0625 19.63476562 C-3.72717502 17.90835399 -5.38469172 16.17715556 -7.02441406 14.42700195 C-13.91231803 6.49372603 -13.91231803 6.49372603 -23.2890625 2.73828125 C-24.51367188 2.82464844 -25.73828125 2.91101563 -27 3 C-27 2.67 -27 2.34 -27 2 C-25.91460937 1.93941406 -24.82921875 1.87882813 -23.7109375 1.81640625 C-22.26561514 1.73193936 -20.82030318 1.64729449 -19.375 1.5625 C-18.66214844 1.52318359 -17.94929688 1.48386719 -17.21484375 1.44335938 C-11.43651729 1.09878027 -5.78588049 -0.17017296 0 0 Z " fill="#CD9A1E" transform="translate(82,141)"/>
<path d="M0 0 C3.3125 -0.3125 3.3125 -0.3125 7 0 C8.9375 2.5 8.9375 2.5 10 5 C10.33 3.68 10.66 2.36 11 1 C11.99 1 12.98 1 14 1 C14 4.63 14 8.26 14 12 C12.35 11.67 10.7 11.34 9 11 C8.67 10.34 8.34 9.68 8 9 C7.67 10.32 7.34 11.64 7 13 C2.25 12.125 2.25 12.125 0 11 C0 7.37 0 3.74 0 0 Z " fill="#C3C3C4" transform="translate(43,44)"/>
<path d="M0 0 C2.6328125 -0.34375 2.6328125 -0.34375 6 0 C8.23190671 1.79484926 9.98220917 3.40661449 11.875 5.5 C12.37257813 6.02464844 12.87015625 6.54929687 13.3828125 7.08984375 C14.60263915 8.38004502 15.80330249 9.68831732 17 11 C16.67 11.99 16.34 12.98 16 14 C14.02 12.35 12.04 10.7 10 9 C10 24.18 10 39.36 10 55 C9.67 55 9.34 55 9 55 C9 38.83 9 22.66 9 6 C6.03 6.66 3.06 7.32 0 8 C0 5.36 0 2.72 0 0 Z " fill="#999595" transform="translate(32,65)"/>
<path d="M0 0 C-2.65775739 2.25506688 -5.17264231 4.09296125 -8.25 5.75 C-17.83406781 11.11624276 -24.27575727 19.24388944 -29 29 C-29.33 28.67 -29.66 28.34 -30 28 C-30.99 29.32 -31.98 30.64 -33 32 C-32.125 26.25 -32.125 26.25 -31 24 C-30.34 24 -29.68 24 -29 24 C-28.73445313 23.26523437 -28.46890625 22.53046875 -28.1953125 21.7734375 C-24.53751537 13.28639187 -16.72796829 4.98728456 -8.3125 1.0625 C-5.28449749 0.09125391 -3.14244242 -0.28567658 0 0 Z " fill="#F05A39" transform="translate(38,29)"/>
<path d="M0 0 C4 0 4 0 5.640625 1.50390625 C6.17171875 2.18324219 6.7028125 2.86257812 7.25 3.5625 C10.34981057 7.35489297 13.67484805 10.40438526 17.49609375 13.45703125 C19 15 19 15 19 18 C19.58523437 18.27070312 20.17046875 18.54140625 20.7734375 18.8203125 C22.98379242 19.99141283 24.72285264 21.25775577 26.625 22.875 C27.51058594 23.61363281 27.51058594 23.61363281 28.4140625 24.3671875 C30 26 30 26 30.984375 27.9921875 C32.18642619 30.36855023 33.56977327 31.57537081 35.625 33.25 C36.25664062 33.77078125 36.88828125 34.2915625 37.5390625 34.828125 C38.02117187 35.21484375 38.50328125 35.6015625 39 36 C38.01 36.33 37.02 36.66 36 37 C30.86957465 31.89483498 25.74299922 26.78582802 20.61914062 21.67407227 C18.87394182 19.93391645 17.12784853 18.19465726 15.38085938 16.45629883 C12.87657281 13.96407941 10.3754728 11.46870129 7.875 8.97265625 C7.08754395 8.19036148 6.30008789 7.40806671 5.48876953 6.60206604 C4.76802246 5.8813945 4.04727539 5.16072296 3.3046875 4.41821289 C2.66515137 3.78089737 2.02561523 3.14358185 1.36669922 2.48695374 C0 1 0 1 0 0 Z " fill="#A86201" transform="translate(129,48)"/>
<path d="M0 0 C1.32 1.32 2.64 2.64 4 4 C0.13082319 8.72899388 -4.00302036 13.11269322 -8.3125 17.4375 C-8.85229492 17.98180664 -9.39208984 18.52611328 -9.94824219 19.08691406 C-13.87627307 23 -13.87627307 23 -15 23 C-15.40974936 19.59357623 -15.18488384 18.26866562 -13.20703125 15.39453125 C-12.41683594 14.54246094 -11.62664063 13.69039062 -10.8125 12.8125 C-10.03519531 11.95269531 -9.25789062 11.09289062 -8.45703125 10.20703125 C-5.99231179 7.99309405 -4.02687985 7.20339494 -1 6 C-0.10169161 2.94727535 -0.10169161 2.94727535 0 0 Z " fill="#D59F28" transform="translate(15,121)"/>
<path d="M0 0 C6.75 0.75 6.75 0.75 9 3 C9.26991906 5.68839385 9.08737357 8.29141936 9 11 C6.04335481 12.4783226 3.25770263 12.06032783 0 12 C0 8.04 0 4.08 0 0 Z " fill="#D2D1D2" transform="translate(59,44)"/>
<path d="M0 0 C0.66 0.33 1.32 0.66 2 1 C2.08829061 4.79151583 2.14081946 8.58276165 2.1875 12.375 C2.22520508 13.96634766 2.22520508 13.96634766 2.26367188 15.58984375 C2.36948709 27.08843041 -0.53376736 38.79508728 -8.3125 47.625 C-9.1478125 48.305625 -9.1478125 48.305625 -10 49 C-9.30178163 43.87003445 -6.94565806 39.74190239 -4.52734375 35.25976562 C-1.57765952 29.61340355 -0.92055777 24.46053509 -0.68359375 18.1640625 C-0.64169922 17.10058594 -0.59980469 16.03710938 -0.55664062 14.94140625 C-0.51732422 13.84699219 -0.47800781 12.75257812 -0.4375 11.625 C-0.39431641 10.50738281 -0.35113281 9.38976562 -0.30664062 8.23828125 C-0.20102589 5.49229801 -0.0989203 2.74623119 0 0 Z " fill="#D93F35" transform="translate(114,68)"/>
<path d="M0 0 C6 0 6 0 9 2 C8.814375 3.0725 8.62875 4.145 8.4375 5.25 C8.0695432 8.40391546 7.95534657 10.09818492 9 13 C8.01 12.67 7.02 12.34 6 12 C5.3125 9.9375 5.3125 9.9375 5 8 C4.01 8 3.02 8 2 8 C2 9.32 2 10.64 2 12 C1.34 12 0.68 12 0 12 C0 8.04 0 4.08 0 0 Z " fill="#D8D7D8" transform="translate(80,44)"/>
<path d="M0 0 C0 0.33 0 0.66 0 1 C1.48113281 1.07347656 1.48113281 1.07347656 2.9921875 1.1484375 C4.91417969 1.26058594 4.91417969 1.26058594 6.875 1.375 C8.15117188 1.44460937 9.42734375 1.51421875 10.7421875 1.5859375 C14 2 14 2 16 4 C15.28457031 3.97905273 14.56914063 3.95810547 13.83203125 3.93652344 C10.55483348 3.85279167 7.27786159 3.80115949 4 3.75 C2.87464844 3.71648438 1.74929687 3.68296875 0.58984375 3.6484375 C-6.55184515 3.56490897 -10.85827296 4.37079766 -17 8 C-19.36350982 8.56696912 -21.56918596 8.79743216 -24 9 C-21.82575883 6.49962266 -20.26954202 5.56371414 -17 5 C-17 4.34 -17 3.68 -17 3 C-11.10261508 0.70657253 -6.33393082 -0.34548714 0 0 Z " fill="#DE5334" transform="translate(55,21)"/>
<path d="M0 0 C-2.90092502 1.93395001 -3.89674737 2.30131941 -7.1875 2.625 C-8.445625 2.74875 -9.70375 2.8725 -11 3 C-10.34 5.31 -9.68 7.62 -9 10 C-9.99 10 -10.98 10 -12 10 C-12.86625 9.030625 -13.7325 8.06125 -14.625 7.0625 C-17.85714728 3.59365507 -20.62441542 3.23641508 -25.2421875 3.0078125 C-26.11230469 3.00394531 -26.11230469 3.00394531 -27 3 C-27 2.67 -27 2.34 -27 2 C-25.91460937 1.93941406 -24.82921875 1.87882813 -23.7109375 1.81640625 C-22.26561514 1.73193936 -20.82030318 1.64729449 -19.375 1.5625 C-18.66214844 1.52318359 -17.94929688 1.48386719 -17.21484375 1.44335938 C-11.43651729 1.09878027 -5.78588049 -0.17017296 0 0 Z " fill="#D69028" transform="translate(82,141)"/>
<path d="M0 0 C3.11585371 -0.32251819 4.58576863 -0.28322887 7.2109375 1.51171875 C13.17716003 7.51024934 17.9526486 14.04065911 21 22 C20.6796875 24.38671875 20.6796875 24.38671875 20 26 C19.67128906 25.24976562 19.34257813 24.49953125 19.00390625 23.7265625 C14.44011556 13.90637331 8.56312874 6.62175158 0 0 Z " fill="#3B2727" transform="translate(91,42)"/>
<path d="M0 0 C0.66 0.33 1.32 0.66 2 1 C-1.38872633 4.58806317 -4.76141332 7.45684799 -9 10 C-9.66 10 -10.32 10 -11 10 C-11 9.34 -11 8.68 -11 8 C-12.65 8 -14.3 8 -16 8 C-15.46632813 7.73574219 -14.93265625 7.47148437 -14.3828125 7.19921875 C-12.5985788 6.30125195 -10.82405192 5.38395293 -9.0546875 4.45703125 C-8.00539063 3.91433594 -6.95609375 3.37164062 -5.875 2.8125 C-4.82054688 2.26207031 -3.76609375 1.71164063 -2.6796875 1.14453125 C-1.79539062 0.76683594 -0.91109375 0.38914062 0 0 Z " fill="#D64036" transform="translate(93,124)"/>
<path d="M0 0 C3.44428265 1.44781793 5.36130962 3.27694609 7.75 6.125 C8.36359375 6.84945312 8.9771875 7.57390625 9.609375 8.3203125 C10.29773438 9.15175781 10.29773438 9.15175781 11 10 C9.265625 10.71484375 9.265625 10.71484375 7 11 C4.859375 9.56640625 4.859375 9.56640625 2.75 7.5625 C1.69039062 6.57443359 1.69039062 6.57443359 0.609375 5.56640625 C0.07828125 5.04949219 -0.4528125 4.53257813 -1 4 C-0.67 2.68 -0.34 1.36 0 0 Z " fill="#422929" transform="translate(25,53)"/>
<path d="M0 0 C1.32 0.33 2.64 0.66 4 1 C4 4.63 4 8.26 4 12 C2.68 11.67 1.36 11.34 0 11 C0 7.37 0 3.74 0 0 Z " fill="#9E9D9D" transform="translate(43,44)"/>
<path d="M0 0 C-4.91382311 4.16930446 -10.19589269 7.21402849 -16 10 C-14.64908476 5.57882285 -12.8349855 3.556657 -9 1 C-5.99291505 -0.12765686 -3.19294521 -0.08869292 0 0 Z " fill="#EF4D3E" transform="translate(38,29)"/>
<path d="M0 0 C2.31 0 4.62 0 7 0 C7 0.33 7 0.66 7 1 C5.35 1 3.7 1 2 1 C2 1.99 2 2.98 2 4 C3.65 4 5.3 4 7 4 C7 4.66 7 5.32 7 6 C5.35 6 3.7 6 2 6 C2 7.32 2 8.64 2 10 C3.65 10 5.3 10 7 10 C7 10.33 7 10.66 7 11 C4.69 11 2.38 11 0 11 C0 7.37 0 3.74 0 0 Z " fill="#EAEAEA" transform="translate(70,45)"/>
<path d="M0 0 C5.45156722 3.27094033 9.61869443 7.41853326 14 12 C13.01 12.495 13.01 12.495 12 13 C2.41860465 4.72093023 2.41860465 4.72093023 0 2 C0 1.34 0 0.68 0 0 Z " fill="#4D2C2A" transform="translate(49,77)"/>
<path d="M0 0 C2.475 0.495 2.475 0.495 5 1 C5.33 2.32 5.66 3.64 6 5 C3 7 3 7 0 7 C0 4.69 0 2.38 0 0 Z " fill="#E8E8E9" transform="translate(32,66)"/>
<path d="M0 0 C2.475 0.495 2.475 0.495 5 1 C5 2.65 5 4.3 5 6 C3.35 6.33 1.7 6.66 0 7 C0 4.69 0 2.38 0 0 Z " fill="#5B5A5C" transform="translate(61,47)"/>
<path d="M0 0 C0 2.97 0 5.94 0 9 C-2.97 8.505 -2.97 8.505 -6 8 C-5.01 7.34 -4.02 6.68 -3 6 C-2.67 5.01 -2.34 4.02 -2 3 C-3.65 3 -5.3 3 -7 3 C-7 2.34 -7 1.68 -7 1 C-1.125 0 -1.125 0 0 0 Z " fill="#464547" transform="translate(79,46)"/>
<path d="M0 0 C0.66 0 1.32 0 2 0 C2 3.63 2 7.26 2 11 C1.01 11 0.02 11 -1 11 C-1.33 9.68 -1.66 8.36 -2 7 C-1.34 7 -0.68 7 0 7 C0 4.69 0 2.38 0 0 Z " fill="#E1E1E1" transform="translate(55,45)"/>
<path d="M0 0 C-0.33 1.32 -0.66 2.64 -1 4 C-2.98 4 -4.96 4 -7 4 C-7 2.68 -7 1.36 -7 0 C-3.98968256 -0.93423645 -3.13349732 -1.04449911 0 0 Z " fill="#959596" transform="translate(89,46)"/>
<path d="M0 0 C0.33 0 0.66 0 1 0 C1 2.31 1 4.62 1 7 C0.34 7 -0.32 7 -1 7 C-0.67 8.32 -0.34 9.64 0 11 C-0.99 10.01 -1.98 9.02 -3 8 C-2.5359375 7.13375 -2.5359375 7.13375 -2.0625 6.25 C-1.07416636 4.15705816 -0.4831387 2.25464725 0 0 Z " fill="#A4A4A4" transform="translate(54,45)"/>
<path d="M0 0 C-3.63 1.32 -7.26 2.64 -11 4 C-11 3.34 -11 2.68 -11 2 C-4.5 -1.125 -4.5 -1.125 0 0 Z " fill="#B23830" transform="translate(49,33)"/>
</svg>
